<?xml version="1.0" encoding="iso-8859-1"?>
<!-- Uploaded to: SVG Repo, www.svgrepo.com, Generator: SVG Repo Mixer Tools -->
<svg height="800px" width="800px" version="1.1" id="Layer_1" xmlns="http://www.w3.org/2000/svg" xmlns:xlink="http://www.w3.org/1999/xlink" 
	 viewBox="0 0 512 512" xml:space="preserve">
<path style="fill:#4D4E5C;" d="M469.072,327.827c0,15.132-29.044,27.398-64.872,27.398s-64.872-12.266-64.872-27.398v-44.43h129.743
	v44.43H469.072z"/>
<ellipse style="fill:#626375;" cx="404.2" cy="283.395" rx="64.867" ry="27.398"/>
<g>
	<path style="fill:#C89173;" d="M241.767,357.225L72.739,23.326C68.082,14.129,58.65,8.331,48.341,8.331l0,0
		c-20.387,0-33.604,21.506-24.396,39.696l193.713,382.662c10.023,19.8,24.601,36.354,42.078,48.668l0.097,0.068l31.893-32.53
		l3.767-46.842l0,0C272.527,394.34,252.747,378.915,241.767,357.225z"/>
	<path style="fill:#C89173;" d="M466.784,402.488h-26.277l-39.004,48.999l-6.445,52.159l0.104,0.016
		c43.077-0.52,81.139-28.351,94.642-69.355l0,0C494.969,418.629,483.291,402.488,466.784,402.488z"/>
</g>
<path style="fill:#FFE6B3;" d="M367.445,402.522l0.014-0.033h-52.048c-6.808,0-13.489-0.837-19.92-2.437l-35.66,79.373
	c18.288,12.864,39.746,21.087,62.504,23.501l0.016-0.034l45.093-49.811v-50.558H367.445z"/>
<path style="fill:#E6CFA1;" d="M367.445,402.488l-45.123,100.435c4.645,0.493,9.344,0.746,14.081,0.746h57.533
	c0.375,0,0.749-0.019,1.123-0.022l45.448-101.159H367.445z"/>
<g style="opacity:0.1;">
	<path d="M390.333,479.226l-0.121-0.016c-0.437,0.004-0.871,0.022-1.308,0.022h-67.025c-5.513,0-10.982-0.252-16.388-0.745l0,0
		c-25.839-2.353-50.228-10.237-71.174-22.543c7.466,8.924,16.018,16.784,25.419,23.41c0.032,0.022,0.064,0.046,0.097,0.068
		c18.288,12.864,39.746,21.087,62.504,23.501l0,0c4.641,0.492,9.335,0.745,14.066,0.745h57.533c0.375,0,0.749-0.019,1.123-0.022
		l0.104,0.016c43.077-0.52,81.139-28.351,94.642-69.355l0,0c0.65-1.972,1.031-3.95,1.172-5.902
		C470.574,459.045,432.521,478.789,390.333,479.226z"/>
</g>
<path d="M493.162,407.634c-6.197-8.565-15.814-13.478-26.386-13.478h-26.277c0,0-73.048,0-73.063,0h-52.033
	c-0.044,0-0.088-0.002-0.132-0.002c-5.985-0.013-11.969-0.744-17.777-2.188c-0.158-0.039-0.315-0.066-0.474-0.096
	c-20.483-5.185-37.969-18.932-47.829-38.407L142.593,142.887c-2.078-4.104-7.091-5.748-11.195-3.67
	c-4.105,2.078-5.748,7.09-3.67,11.195l106.598,210.575c10.62,20.978,28.465,36.526,49.676,44.288l-27.508,61.225
	c-12.799-10.691-23.552-24.045-31.414-39.576l-19.063-37.656c-2.078-4.104-7.092-5.748-11.195-3.67
	c-4.105,2.078-5.748,7.09-3.67,11.195l19.063,37.656c10.485,20.715,25.873,38.455,44.781,51.762
	c0.011,0.008,0.022,0.018,0.033,0.026c0.104,0.073,0.211,0.141,0.315,0.214c23.586,16.46,52.212,25.532,80.982,25.547
	c0.022,0,0.044,0.001,0.067,0.001h57.532c0.033,0,0.067-0.002,0.1-0.002c0.257-0.001,0.512-0.007,0.768-0.013
	c0,0,0.352-0.008,0.368-0.01c46.772-0.521,87.885-30.543,102.547-75.063C501.016,426.871,499.359,416.201,493.162,407.634z
	 M389.651,495.339h-53.256c0,0-0.016,0-0.023,0c-0.499,0-0.993-0.02-1.491-0.026l37.961-84.494h54.782L389.651,495.339z
	 M300.338,409.573c0.039-0.088,2.642,0.397,2.905,0.431c4.023,0.547,8.102,0.815,12.16,0.815h39.157l-37.309,83.043
	c-16.621-2.586-32.635-8.548-46.932-17.471L300.338,409.573z M481.885,431.701c-10.999,33.395-39.557,57.171-73.459,62.503
	l37.463-83.385h20.888c5.164,0,9.861,2.399,12.888,6.582C482.69,421.585,483.5,426.797,481.885,431.701z"/>
<path d="M190.198,358.015L31.368,44.263c-3.007-5.94-2.72-12.872,0.765-18.544c3.487-5.671,9.542-9.058,16.2-9.058
	c7.209,0,13.709,3.994,16.964,10.427l46.592,92.039c2.077,4.104,7.091,5.748,11.195,3.67c4.105-2.078,5.748-7.09,3.67-11.195
	L80.163,19.564C74.055,7.495,61.858,0,48.332,0C35.841,0,24.479,6.353,17.939,16.996c-6.54,10.641-7.078,23.648-1.435,34.792
	c0,0,158.785,313.665,158.83,313.752c2.04,4.032,7.165,5.71,11.195,3.67C190.633,367.132,192.276,362.121,190.198,358.015z"/>
<path d="M355.08,354.875c13.255,5.598,30.697,8.68,49.113,8.68s35.857-3.083,49.113-8.68c15.535-6.561,24.09-16.167,24.09-27.048
	v-44.43c0-6.551-3.129-16.057-18.038-24.141c-4.044-2.193-9.101-0.692-11.294,3.352c-2.193,4.045-0.692,9.101,3.353,11.294
	c5.747,3.117,9.318,6.754,9.318,9.494c0,2.899-4.302,7.641-13.911,11.699c-9.009,3.804-20.955,6.291-33.703,7.09
	c-2.941,0.184-5.926,0.279-8.927,0.279c-16.005,0-31.543-2.686-42.63-7.369c-9.609-4.059-13.911-8.8-13.911-11.699
	s4.302-7.641,13.911-11.699c11.087-4.683,26.626-7.369,42.63-7.369c5.312,0,10.602,0.29,15.725,0.863
	c4.565,0.508,8.694-2.78,9.205-7.353c0.511-4.573-2.78-8.694-7.353-9.206c-5.735-0.642-11.647-0.966-17.576-0.966
	c-18.416,0-35.858,3.083-49.113,8.68c-15.535,6.561-24.09,16.167-24.09,27.048v44.43C330.99,338.708,339.545,348.314,355.08,354.875
	z M404.191,319.127c18.416,0,35.857-3.083,49.113-8.68c2.543-1.073,5.039-2.288,7.429-3.67v21.052
	c0,2.899-4.302,7.641-13.911,11.699c-11.087,4.683-26.626,7.369-42.63,7.369c-16.005,0-31.543-2.686-42.63-7.369
	c-9.609-4.059-13.911-8.8-13.911-11.699c0,0,0-21,0-21.051c0.024,0.941,6.713,3.367,7.429,3.669
	C368.334,316.044,385.776,319.127,404.191,319.127z"/>
</svg>